HIERARCHY
ROOT Hips
{
  OFFSET 0 89.5177 0.535
  CHANNELS 6 Xposition Yposition Zposition Zrotation Xrotation Yrotation
  JOINT Spine
  {
    OFFSET 12.0259 -0.162855 1.69034e-005
    CHANNELS 3 Zrotation Xrotation Yrotation
    JOINT Spine1
    {
      OFFSET 15.3169 -0.0121922 0
      CHANNELS 3 Zrotation Xrotation Yrotation
      JOINT Spine2
      {
        OFFSET 15.3176 -0.0121908 0
        CHANNELS 3 Zrotation Xrotation Yrotation
        JOINT Neck
        {
          OFFSET 19.9142 1.56338 0
          CHANNELS 3 Zrotation Xrotation Yrotation
          JOINT Head
          {
            OFFSET 6.92651 0 0
            CHANNELS 3 Zrotation Xrotation Yrotation
            End Site
            {
              OFFSET 20.7666 0 0
            }
          }
          JOINT LeftShoulder
          {
            OFFSET -6.20654 0.708824 7.28219
            CHANNELS 3 Zrotation Xrotation Yrotation
            JOINT LeftArm
            {
              OFFSET 14.108 0 -1.52588e-005
              CHANNELS 3 Zrotation Xrotation Yrotation
              JOINT LeftForeArm
              {
                OFFSET 28.5802 0 0
                CHANNELS 3 Zrotation Xrotation Yrotation
                JOINT LeftHand
                {
                  OFFSET 27.092 0 0
                  CHANNELS 3 Zrotation Xrotation Yrotation
                  End Site
                  {
                    OFFSET 9.55928 -0.186424 0.145352
                  }
                }
              }
            }
          }
          JOINT RightShoulder
          {
            OFFSET -6.20654 0.708866 -7.28218
            CHANNELS 3 Zrotation Xrotation Yrotation
            JOINT RightArm
            {
              OFFSET 14.108 0 1.52588e-005
              CHANNELS 3 Zrotation Xrotation Yrotation
              JOINT RightForeArm
              {
                OFFSET 28.5802 0 0
                CHANNELS 3 Zrotation Xrotation Yrotation
                JOINT RightHand
                {
                  OFFSET 27.092 0 0
                  CHANNELS 3 Zrotation Xrotation Yrotation
                  End Site
                  {
                    OFFSET 9.55929 -0.186417 -0.145354
                  }
                }
              }
            }
          }
        }
      }
    }
  }
  JOINT LeftUpLeg
  {
    OFFSET 0.005 -0.535 8.837
    CHANNELS 3 Zrotation Xrotation Yrotation
    JOINT LeftLeg
    {
      OFFSET 39.9035 0 0
      CHANNELS 3 Zrotation Xrotation Yrotation
      JOINT LeftFoot
      {
        OFFSET 39.6689 0 0
        CHANNELS 3 Zrotation Xrotation Yrotation
        JOINT LeftToe
        {
          OFFSET 10.1624 13.6296 0
          CHANNELS 3 Zrotation Xrotation Yrotation
          End Site
          {
            OFFSET 8.38147 0 0
          }
        }
      }
    }
  }
  JOINT RightUpLeg
  {
    OFFSET 0.005 -0.535 -8.837
    CHANNELS 3 Zrotation Xrotation Yrotation
    JOINT RightLeg
    {
      OFFSET 39.9035 0 0
      CHANNELS 3 Zrotation Xrotation Yrotation
      JOINT RightFoot
      {
        OFFSET 39.6689 0 0
        CHANNELS 3 Zrotation Xrotation Yrotation
        JOINT RightToe
        {
          OFFSET 10.1624 13.6296 0
          CHANNELS 3 Zrotation Xrotation Yrotation
          End Site
          {
            OFFSET 8.38147 0 0
          }
        }
      }
    }
  }
}
MOTION
Frames:	14
Frame Time:	0.0333333
225.917 88.5333 -174.447 147.638 -85.8867 59.6351 -0.396232 -1.43617 -1.09355 -0.820194 -2.86401 -2.19786 -0.820194 -2.86401 -2.19787 -8.30748e-012 -9.0191e-006 -5.27751e-005 15.1932 -5.15797 1.2324 -177.44 -27.5111 -84.4702 -16.1486 -46.4808 14.3709 -10.7325 9.54166e-015 4.77083e-015 -27.3436 -54.6942 -30.8044 -179.148 18.3774 87.3002 -17.9543 38.2981 -8.02597 -8.70449 -6.36111e-015 -7.95139e-016 -65.4068 68.7753 68.5686 -3.55849 9.03679 -178.066 -11.9483 1.59028e-015 1.19271e-015 12.3829 6.07862 -6.78422 90 2.36057e-016 1.59028e-015 -8.72728 -7.588 175.206 -18.288 0 7.95139e-016 13.5478 -5.36575 2.05098 90 -1.75713e-020 1.98785e-016 
225.934 88.5348 -174.409 147.453 -85.8555 59.4376 -0.39801 -1.43378 -1.09518 -0.823744 -2.85919 -2.20116 -0.823745 -2.85919 -2.20117 -8.30768e-012 -9.0191e-006 -5.27751e-005 15.0444 -5.11204 1.11693 -177.436 -27.5197 -84.4639 -16.2796 -46.466 14.3431 -10.7878 0 7.95139e-015 -27.3814 -54.7272 -30.8482 -179.15 18.3672 87.3054 -18.0009 38.2482 -8.02115 -8.69586 9.54166e-015 7.95139e-016 -65.4093 68.796 68.571 -3.62569 9.00911 -178.043 -11.9801 1.59028e-015 7.95139e-016 12.3872 6.08113 -6.76113 90 2.36057e-016 7.95139e-016 -8.75426 -7.57345 175.229 -18.2768 0 -0 13.5234 -5.30667 2.03853 90 -1.30422e-020 -9.93923e-017 
225.952 88.5341 -174.38 147.164 -85.8279 59.1385 -0.397805 -1.43062 -1.10002 -0.824837 -2.85325 -2.21076 -0.824837 -2.85325 -2.21077 -8.30748e-012 -9.0191e-006 -5.27751e-005 14.9553 -5.07369 1.0267 -177.402 -27.5799 -84.402 -16.5864 -46.6062 14.2091 -10.705 6.36111e-015 6.36111e-015 -27.4309 -54.7443 -30.9022 -179.165 18.3353 87.3474 -17.9006 38.1973 -8.16286 -8.68936 -1.27222e-014 -0 -65.372 68.8108 68.5306 -3.71948 9.0214 -178.01 -12.083 0 7.95139e-016 12.4366 6.12806 -6.77657 90 1.98785e-016 -7.95139e-016 -8.78792 -7.63266 175.245 -18.2892 1.59028e-015 5.96354e-016 13.5154 -5.33336 2.02349 90 4.92305e-021 -1.98785e-016 
225.98 88.5334 -174.351 146.719 -85.7695 58.673 -0.39732 -1.42818 -1.10998 -0.825938 -2.84786 -2.23074 -0.825938 -2.84786 -2.23075 -8.30748e-012 -9.0191e-006 -5.27751e-005 14.9137 -5.09077 1.12348 -177.393 -27.6108 -84.3885 -16.7833 -46.6317 14.1401 -10.7283 3.18055e-015 -0 -27.3001 -54.7302 -30.7635 -179.15 18.3269 87.299 -17.8011 38.1598 -8.26671 -8.67106 -3.18055e-015 -0 -65.3346 68.8223 68.49 -3.79376 8.94636 -177.976 -12.1036 1.59028e-015 -7.95139e-016 12.4171 6.11384 -6.74966 90 1.73937e-016 7.95139e-016 -8.84368 -7.66521 175.28 -18.2964 0 -1.98785e-016 13.4951 -5.33411 1.99994 90 5.83538e-021 -0 
226.004 88.533 -174.327 146.487 -85.7399 58.4246 -0.396522 -1.42737 -1.1162 -0.826489 -2.84496 -2.24316 -0.826489 -2.84496 -2.24317 -8.30788e-012 -9.0191e-006 -5.27751e-005 14.9355 -5.10477 1.1887 -177.402 -27.5963 -84.4053 -16.7918 -46.5909 14.1603 -10.779 -3.18055e-015 -1.59028e-015 -27.3024 -54.7328 -30.7663 -179.141 18.3162 87.2691 -17.7169 38.0888 -8.3509 -8.62033 1.27222e-014 7.95139e-016 -65.2993 68.8338 68.4494 -3.89201 8.98384 -177.93 -12.2104 -4.77083e-015 -3.97569e-016 12.4663 6.1715 -6.78183 90 1.05604e-015 -7.95139e-016 -8.85411 -7.66545 175.311 -18.2863 -1.59028e-015 -1.98785e-016 13.4847 -5.28767 1.9849 90 -6.09012e-021 -9.93923e-017 
226.033 88.5326 -174.305 146.384 -85.7168 58.2998 -0.395545 -1.4271 -1.11816 -0.818207 -2.84221 -2.247 -0.818207 -2.84221 -2.24701 -8.30708e-012 -9.0191e-006 -5.27751e-005 14.9723 -5.10746 1.2065 -177.401 -27.6125 -84.4068 -16.7078 -46.5651 14.2094 -10.8409 1.27222e-014 3.18055e-015 -27.2593 -54.7782 -30.727 -179.14 18.2802 87.2617 -17.6236 38.1127 -8.42647 -8.55616 6.36111e-015 7.95139e-016 -65.2153 68.8694 68.3607 -3.93381 8.94718 -177.894 -12.221 4.77083e-015 -3.97569e-016 12.4696 6.16018 -6.74518 90 8.69683e-017 7.95139e-016 -8.87238 -7.67527 175.353 -18.2783 7.95139e-016 -3.97569e-016 13.4686 -5.27545 1.96222 90 1.04267e-021 2.98177e-016 
226.058 88.532 -174.288 146.387 -85.6894 58.2903 -0.394673 -1.42694 -1.12093 -0.807685 -2.84015 -2.25241 -0.807685 -2.84015 -2.25242 -8.30708e-012 -9.0191e-006 -5.27751e-005 14.9558 -5.16563 1.29476 -177.402 -27.5917 -84.4042 -16.5556 -46.6308 14.2734 -10.8381 -9.54166e-015 6.36111e-015 -27.3145 -54.7916 -30.7865 -179.134 18.2852 87.2407 -17.5487 38.2157 -8.49268 -8.52769 -9.54166e-015 7.95139e-016 -65.2065 68.886 68.3495 -3.98781 8.93845 -177.865 -12.2416 -3.18055e-015 7.95139e-016 12.4694 6.16431 -6.7393 90 -6.21202e-016 1.59028e-015 -8.91861 -7.68274 175.387 -18.2918 -7.95139e-016 1.98785e-016 13.4556 -5.28061 1.93589 90 -1.24468e-020 -0 
226.082 88.5316 -174.273 146.534 -85.673 58.4312 -0.39402 -1.42646 -1.12263 -0.812926 -2.83932 -2.26774 -0.812926 -2.83932 -2.26775 -8.30708e-012 -9.0191e-006 -5.27751e-005 15.0155 -5.26201 1.39426 -177.4 -27.5751 -84.3981 -16.4942 -46.6626 14.2342 -10.7277 3.18055e-015 3.18055e-015 -27.3151 -54.7162 -30.7774 -179.136 18.2998 87.249 -17.4374 38.3562 -8.61976 -8.46783 -3.18055e-015 -0 -65.1587 68.9238 68.2988 -4.03007 8.94623 -177.84 -12.2585 0 3.97569e-016 12.4707 6.16865 -6.75085 90 1.2424e-017 -2.38542e-015 -8.94192 -7.6828 175.411 -18.2956 1.59028e-015 -5.96354e-016 13.4529 -5.26561 1.91695 90 8.88637e-022 -1.98785e-016 
226.102 88.5311 -174.27 146.629 -85.6768 58.5164 -0.393769 -1.4252 -1.12421 -0.815887 -2.84189 -2.26116 -0.815887 -2.84189 -2.26116 -8.30708e-012 -9.0191e-006 -5.27751e-005 15.1272 -5.33081 1.39765 -177.396 -27.5995 -84.3922 -16.3575 -46.8234 14.3212 -10.5826 3.18055e-015 -3.18055e-015 -27.4312 -54.7115 -30.8983 -179.166 18.2506 87.3377 -17.3106 38.6006 -8.72304 -8.32708 -9.54166e-015 -7.95139e-016 -65.0888 68.9914 68.2223 -4.04512 8.95401 -177.815 -12.2738 -3.18055e-015 -1.59028e-015 12.4705 6.1688 -6.76176 90 3.47873e-016 -7.95139e-016 -8.93868 -7.6882 175.429 -18.297 0 -3.97569e-016 13.4514 -5.28431 1.9084 90 8.493e-020 -0 
226.12 88.5304 -174.28 146.712 -85.6929 58.5911 -0.394018 -1.41567 -1.12573 -0.821647 -2.82276 -2.26103 -0.821647 -2.82276 -2.26104 -8.30748e-012 -9.0191e-006 -5.27751e-005 15.2867 -5.37839 1.36125 -177.419 -27.5326 -84.4294 -16.1059 -46.8742 14.4479 -10.6045 0 -0 -27.4684 -54.6771 -30.9329 -179.163 18.29 87.3353 -17.3483 38.5756 -8.67134 -8.28368 3.18055e-015 1.59028e-015 -65.1059 68.9462 68.233 -4.01711 8.95388 -177.796 -12.2489 -1.59028e-015 1.19271e-015 12.4584 6.15571 -6.76446 90 -8.69683e-017 2.38542e-015 -8.93644 -7.71948 175.457 -18.2974 -1.59028e-015 -9.93923e-016 13.4494 -5.32903 1.88537 90 -2.17183e-020 -0 
226.137 88.5298 -174.287 147.056 -85.6916 58.9265 -0.394907 -1.40832 -1.12727 -0.835398 -2.80794 -2.26099 -0.835398 -2.80794 -2.26099 -8.30748e-012 -9.0191e-006 -5.27751e-005 15.4177 -5.36967 1.26692 -177.393 -27.5673 -84.3811 -16.1464 -46.8258 14.4018 -10.5666 0 1.59028e-015 -27.324 -54.7061 -30.7855 -179.161 18.3102 87.3324 -17.4123 38.5705 -8.57561 -8.28574 6.36111e-015 7.95139e-016 -65.0577 68.9604 68.1852 -4.01521 8.95546 -177.777 -12.2255 0 3.97569e-016 12.4479 6.14075 -6.768 90 9.93923e-017 -0 -8.93849 -7.66345 175.482 -18.2878 -1.59028e-015 -7.95139e-016 13.4474 -5.30316 1.87691 90 1.31992e-020 -1.98785e-016 
226.151 88.5296 -174.304 146.836 -85.7363 58.708 -0.396227 -1.40763 -1.12889 -0.834662 -2.81163 -2.26339 -0.834663 -2.81163 -2.2634 -8.30748e-012 -9.0191e-006 -5.27751e-005 15.5126 -5.26663 1.19945 -177.403 -27.5619 -84.4014 -15.9888 -46.7461 14.482 -10.6186 0 -3.18055e-015 -27.3569 -54.7132 -30.8209 -179.162 18.2891 87.33 -17.4658 38.5818 -8.48378 -8.33037 6.36111e-015 7.95139e-016 -65.0859 68.9531 68.213 -3.96391 8.9879 -177.76 -12.2327 1.59028e-015 -3.97569e-016 12.4572 6.16106 -6.81305 90 2.48481e-017 7.95139e-016 -8.87785 -7.6487 175.495 -18.2866 0 -0 13.458 -5.28464 1.86645 90 -1.56163e-020 9.93923e-017 
226.166 88.5293 -174.322 146.448 -85.7557 58.323 -0.397556 -1.40722 -1.13068 -0.832585 -2.81158 -2.27204 -0.832585 -2.81158 -2.27205 -8.30728e-012 -9.0191e-006 -5.27751e-005 15.5839 -5.23253 1.1543 -177.411 -27.5206 -84.4104 -15.8959 -46.7411 14.5486 -10.638 -3.18055e-015 -4.77083e-015 -27.4073 -54.6942 -30.8831 -179.159 18.3299 87.3287 -17.5548 38.5649 -8.42316 -8.37443 9.54166e-015 -0 -65.1507 68.9184 68.2794 -3.90855 8.97854 -177.754 -12.1987 0 7.95139e-016 12.4318 6.1614 -6.83849 90 -8.69683e-017 1.59028e-015 -8.81523 -7.60393 175.506 -18.2777 7.95139e-016 -5.96354e-016 13.4752 -5.22099 1.86034 90 3.22753e-020 9.93923e-017 
226.175 88.5273 -174.346 145.882 -85.7585 57.7572 -0.398633 -1.40699 -1.13417 -0.829667 -2.81143 -2.27904 -0.829668 -2.81143 -2.27905 -8.30748e-012 -9.0191e-006 -5.27751e-005 15.6428 -5.21483 1.11689 -177.401 -27.5683 -84.3985 -16.0016 -46.8211 14.5483 -10.5774 3.18055e-015 3.18055e-015 -27.4046 -54.6998 -30.878 -179.162 18.3365 87.3382 -17.6058 38.5558 -8.38359 -8.4056 0 -7.95139e-016 -65.1484 68.9239 68.2764 -3.86396 8.9433 -177.748 -12.1875 1.59028e-015 3.97569e-016 12.4462 6.16405 -6.84085 90 1.2424e-017 -1.59028e-015 -8.77817 -7.68269 175.505 -18.284 -1.59028e-015 -7.95139e-016 13.4982 -5.28628 1.85631 90 -1.25535e-020 9.93923e-017 
